<svg width="512" height="512" viewBox="0 0 512 512" fill="none" xmlns="http://www.w3.org/2000/svg">
<path d="M348.076 512C231.91 512 115.955 512 0 512C0 341.333 0 170.667 0 0C170.667 0 341.333 0 512 0C512 170.667 512 341.333 512 512C457.429 512 402.858 512 348.076 512ZM189.318 118.309C187.502 118.138 185.685 117.974 183.869 117.794C171.788 116.596 159.709 115.373 147.625 114.199C135.122 112.984 122.619 111.762 110.107 110.643C102.34 109.948 95.8051 112.93 90.8156 118.589C83.4112 126.987 81.2717 136.978 84.6386 147.612C88.0692 158.448 95.6307 165.561 106.774 168.279C110.961 169.3 115.391 169.383 119.723 169.744C129.095 170.526 138.473 171.232 147.853 171.915C149.214 172.014 150.902 171.848 151.106 173.447C151.241 174.513 150.537 176.028 149.708 176.823C127.942 197.718 106.072 218.505 84.3144 239.408C77.5883 245.87 70.9216 252.42 64.6242 259.292C59.0073 265.421 55.5458 272.764 55.2192 281.245C54.8109 291.845 58.9219 300.852 65.9386 308.454C68.2638 310.974 71.5488 313.137 74.807 314.179C88.024 318.403 100.189 315.342 110.176 306.22C125.092 292.597 139.352 278.258 153.878 264.209C166.386 252.112 178.869 239.988 191.388 227.902C192.261 227.059 193.342 226.43 194.781 225.365C194.781 226.831 194.784 227.523 194.781 228.215C194.707 242.728 194.586 257.24 194.572 271.752C194.561 284.386 200.818 293.304 211.969 298.444C223.122 303.585 233.492 301.994 240.979 293.001C246.567 286.288 249.693 278.51 249.783 269.696C250.119 236.678 250.463 203.66 250.685 170.642C250.754 160.343 250.764 150.025 250.217 139.747C249.735 130.707 244.769 124.924 236.812 123.004C234.509 122.448 232.106 122.253 229.735 122.031C216.392 120.782 203.046 119.575 189.318 118.309ZM433.201 288.76C433.063 286.598 433.088 284.41 432.757 282.276C430.919 270.403 419.994 259.388 408.073 257.807C399.732 256.702 391.321 256.105 382.932 255.405C377.9 254.984 372.842 254.866 367.81 254.45C366.929 254.377 365.682 253.673 365.39 252.946C365.097 252.216 365.714 251.064 366.078 250.156C366.244 249.743 366.767 249.476 367.121 249.135C394.177 223.12 421.277 197.151 448.228 171.028C451.461 167.895 454.183 164.116 456.601 160.294C460.122 154.728 461.678 148.464 461.244 141.84C460.685 133.289 457.13 125.919 451.884 119.298C448.785 115.386 444.758 112.647 439.912 111.537C427.094 108.601 415.481 111.557 405.95 120.422C390.848 134.467 376.2 149 361.374 163.34C349.22 175.095 337.094 186.878 324.927 198.619C324.107 199.41 323.045 199.951 321.595 200.955C321.595 199.473 321.59 198.787 321.596 198.101C321.709 183.662 321.907 169.222 321.912 154.783C321.915 141.903 315.513 132.855 304.018 127.752C294.775 123.649 285.422 123.627 277.59 131.205C270.656 137.914 267.069 146.312 266.74 155.979C266.549 161.582 266.558 167.192 266.51 172.8C266.253 203.151 265.954 233.502 265.789 263.854C265.745 271.834 265.694 279.856 266.424 287.786C267.281 297.086 272.671 302.593 281.836 303.74C292.268 305.046 302.783 305.674 313.254 306.679C327.921 308.086 342.579 309.572 357.242 311.018C372.394 312.512 387.54 314.067 402.703 315.435C406.083 315.74 409.661 315.973 412.91 315.219C424.776 312.464 432.373 302.442 433.201 288.76ZM318.905 380.938C318.905 382.241 318.905 383.543 318.905 384.834C320.926 384.834 322.638 384.834 324.326 384.834C324.326 370.223 324.326 355.757 324.326 341.191C322.283 341.191 320.386 341.294 318.506 341.158C317.06 341.053 316.463 341.56 316 342.933C312.248 354.075 308.405 365.185 304.581 376.302C304.398 376.835 304.13 377.339 303.753 378.193C303.394 377.177 303.178 376.591 302.981 375.998C299.306 364.978 295.646 353.952 291.926 342.946C291.702 342.281 291.035 341.31 290.52 341.275C287.955 341.103 285.372 341.196 282.8 341.196C282.8 355.913 282.8 370.375 282.8 384.828C284.676 384.828 286.388 384.828 288.227 384.828C288.227 378.73 288.227 372.781 288.227 366.832C288.227 360.932 288.227 355.031 288.227 349.131C288.844 349.779 289.13 350.466 289.369 351.169C292.93 361.637 296.49 372.105 300.035 382.579C300.482 383.9 300.668 385.236 302.707 385.033C304.62 384.843 306.235 385.259 307.106 382.56C310.457 372.173 314.175 361.904 317.761 351.593C317.998 350.911 318.279 350.244 318.601 349.41C318.825 349.729 318.884 349.773 318.884 349.817C318.894 360.052 318.899 370.286 318.905 380.938ZM68.4302 382.07C80.777 390.207 96.6934 384.584 100.566 370.688C101.729 366.514 101.901 362.257 101.107 357.995C99.6398 350.128 95.5884 344.184 87.7583 341.62C79.9754 339.071 72.6208 340.08 66.3398 345.702C61.6635 349.889 59.9218 355.457 59.6129 361.508C59.1978 369.639 61.4446 376.73 68.4302 382.07ZM216.767 381.569C216.967 381.714 217.343 381.864 217.34 382.004C217.3 383.474 217.233 384.944 217.11 386.409C216.862 389.386 215.481 391.706 212.608 392.683C209.243 393.826 205.835 393.928 202.781 391.657C202.301 391.301 201.786 390.699 201.709 390.152C201.469 388.426 200.291 388.128 198.903 388.002C197.957 387.916 197.012 387.815 195.946 387.709C195.859 391.419 197.115 394.206 200.264 395.932C204.56 398.288 209.128 398.434 213.745 397.175C218.691 395.827 221.674 392.583 222.421 387.463C222.674 385.733 222.846 383.975 222.855 382.229C222.904 373.045 222.89 363.861 222.889 354.677C222.889 354.275 222.799 353.874 222.749 353.461C221.069 353.461 219.502 353.461 217.788 353.461C217.788 354.569 217.788 355.514 217.788 356.76C217.307 356.33 217.061 356.117 216.822 355.896C210.938 350.476 201.593 351.617 197.583 358.532C193.755 365.132 193.609 372.075 197.424 378.753C201.495 385.875 210.342 387.156 216.767 381.569ZM142.543 357.11C147.09 357.518 148.942 359.287 149.028 363.21C149.053 364.348 148.79 365.069 147.519 365.268C145.376 365.604 143.24 366.003 141.119 366.459C138.054 367.116 134.859 367.485 131.985 368.637C128.231 370.14 126.376 374.091 126.938 377.91C127.503 381.742 130.224 384.553 134.215 385.363C138.993 386.333 143.407 385.456 147.427 382.676C148.035 382.256 148.642 381.833 149.318 381.363C150.478 385.523 150.687 385.625 155.322 384.846C155.06 381.131 154.714 377.476 154.569 373.813C154.394 369.406 154.471 364.989 154.285 360.583C154.14 357.17 152.364 354.738 149.097 353.646C143.768 351.864 138.445 352.002 133.325 354.383C130.102 355.882 128.523 358.659 127.935 362.312C129.743 362.574 131.373 362.811 133.128 363.065C134.193 358.006 137.683 356.776 142.543 357.11ZM413.018 381.131C407.915 379.749 405.217 376.122 405.352 370.576C413.093 370.576 420.844 370.576 428.62 370.576C428.736 370.086 428.864 369.82 428.85 369.561C428.783 368.234 428.727 366.904 428.58 365.584C427.76 358.235 422.553 352.984 415.711 352.572C407.73 352.092 401.745 356.366 400.101 363.935C399.631 366.1 399.467 368.389 399.552 370.607C400.09 384.742 411.834 387.602 420.353 384.817C424.803 383.363 427.368 380.052 428.627 375.471C427.047 375.253 425.73 374.926 424.421 374.952C423.788 374.965 422.86 375.491 422.592 376.04C420.692 379.924 417.656 381.618 413.018 381.131ZM254.542 356.963C250.387 352.573 245.238 351.668 239.662 353.127C234.387 354.507 231.153 358.2 229.921 363.42C229.351 365.838 229.213 368.415 229.267 370.911C229.478 380.494 236.232 386.469 245.802 385.706C252.298 385.187 257.02 381.305 258.126 375.475C257.034 375.309 255.934 375.187 254.856 374.966C253.475 374.683 252.545 374.843 251.935 376.415C251.032 378.744 249.226 380.279 246.757 380.959C240.484 382.686 234.831 377.798 234.983 370.552C242.73 370.552 250.485 370.552 258.397 370.552C258.64 365.541 257.973 361.024 254.542 356.963ZM344.622 352.572C337.102 353.501 332.785 357.435 331.522 364.853C331.127 367.171 331.121 369.605 331.292 371.961C331.873 379.99 337.248 385.292 345.031 385.72C353.069 386.161 359.196 381.495 360.53 373.717C360.905 371.531 360.987 369.24 360.82 367.027C360.099 357.504 354.563 352.503 344.622 352.572ZM439.274 356.339C438.128 353.026 436.762 352.474 432.5 353.665C432.694 354.19 432.882 354.71 433.079 355.227C436.577 364.446 440.085 373.661 443.561 382.888C443.873 383.718 444.259 384.663 444.143 385.488C443.342 391.143 440.613 393.135 435.036 392.307C434.934 392.292 434.812 392.421 434.624 392.524C434.715 393.454 434.89 394.418 434.887 395.382C434.882 396.819 435.473 397.464 436.941 397.718C440.51 398.334 443.356 397.245 445.354 394.303C446.405 392.756 447.238 391.02 447.917 389.271C450.399 382.883 452.776 376.455 455.189 370.041C457.253 364.553 459.312 359.063 461.478 353.297C460.257 353.297 459.279 353.408 458.335 353.273C456.565 353.022 455.769 353.765 455.202 355.425C452.696 362.769 450.058 370.068 447.452 377.377C447.381 377.579 447.14 377.72 446.98 377.888C444.431 370.732 441.921 363.686 439.274 356.339ZM375.529 359.092C376.13 358.735 376.703 358.316 377.336 358.03C382.643 355.629 387.233 358.278 387.596 364.033C387.763 366.686 387.661 369.356 387.666 372.019C387.673 376.273 387.668 380.528 387.668 384.812C389.587 384.812 391.283 384.812 393.107 384.812C393.107 381.008 393.14 377.372 393.098 373.737C393.05 369.467 393.16 365.178 392.791 360.933C392.406 356.497 389.939 353.97 385.623 352.966C380.446 351.761 375.928 352.892 372.05 357.542C372.05 355.786 372.05 354.585 372.05 353.408C370.326 353.408 368.874 353.408 367.361 353.408C367.361 363.969 367.361 374.418 367.361 384.82C369.195 384.82 370.84 384.82 372.596 384.82C372.596 379.058 372.519 373.456 372.626 367.858C372.684 364.79 372.755 361.635 375.529 359.092ZM162.743 363.28C162.743 370.468 162.743 377.655 162.743 384.862C164.696 384.862 166.348 384.862 168.191 384.862C168.191 382.241 168.152 379.735 168.2 377.231C168.284 372.825 168.195 368.399 168.599 364.021C169.001 359.679 172.596 356.992 176.974 357.227C181.028 357.444 182.993 359.763 183.233 364.622C183.258 365.111 183.254 365.602 183.254 366.092C183.256 371.625 183.256 377.159 183.256 382.692C183.256 383.425 183.256 384.159 183.256 384.829C185.248 384.829 186.896 384.829 188.704 384.829C188.704 382.73 188.728 380.781 188.7 378.832C188.614 372.813 188.679 366.785 188.348 360.779C188.141 357.033 185.955 354.413 182.263 353.296C177.103 351.735 172.423 352.342 168.591 356.503C168.391 356.72 168.118 356.868 167.767 357.132C167.7 355.742 167.644 354.583 167.59 353.472C165.888 353.472 164.39 353.472 162.743 353.472C162.743 356.717 162.743 359.788 162.743 363.28ZM109.822 384.98C111.057 384.98 112.293 384.98 113.416 384.98C113.567 384.563 113.653 384.436 113.653 384.308C113.672 380.597 113.635 376.884 113.708 373.174C113.768 370.172 113.669 367.124 114.156 364.181C115.085 358.56 117.989 357.059 123.303 359.053C123.41 359.093 123.56 359.018 123.796 358.98C124.351 357.474 124.922 355.925 125.478 354.418C120.904 351.282 117.974 351.93 113.299 357.128C113.187 355.788 113.088 354.603 112.988 353.415C111.359 353.415 109.916 353.415 108.271 353.415C108.271 363.667 108.26 373.804 108.319 383.941C108.321 384.289 109.037 384.632 109.822 384.98Z" fill="#111820"/>
<path d="M189.509 118.332C203.046 119.575 216.392 120.782 229.735 122.031C232.106 122.253 234.509 122.448 236.812 123.004C244.769 124.924 249.735 130.707 250.217 139.747C250.764 150.025 250.754 160.343 250.685 170.642C250.463 203.66 250.119 236.678 249.783 269.696C249.693 278.51 246.567 286.288 240.979 293.001C233.492 301.994 223.122 303.585 211.969 298.444C200.818 293.304 194.561 284.386 194.572 271.752C194.586 257.24 194.707 242.728 194.781 228.215C194.784 227.523 194.781 226.831 194.781 225.365C193.342 226.43 192.261 227.059 191.388 227.902C178.869 239.988 166.386 252.112 153.878 264.209C139.352 278.258 125.092 292.597 110.176 306.22C100.189 315.342 88.024 318.403 74.807 314.179C71.5488 313.137 68.2638 310.974 65.9386 308.454C58.9219 300.852 54.8109 291.845 55.2192 281.245C55.5458 272.764 59.0073 265.421 64.6242 259.292C70.9216 252.42 77.5883 245.87 84.3144 239.408C106.072 218.505 127.942 197.718 149.708 176.823C150.537 176.028 151.241 174.513 151.106 173.447C150.902 171.848 149.214 172.014 147.853 171.915C138.473 171.232 129.095 170.526 119.723 169.744C115.391 169.383 110.961 169.3 106.774 168.279C95.6307 165.561 88.0692 158.448 84.6386 147.612C81.2717 136.978 83.4112 126.987 90.8156 118.589C95.8051 112.93 102.34 109.948 110.107 110.643C122.619 111.762 135.122 112.984 147.625 114.199C159.709 115.373 171.788 116.596 183.869 117.794C185.685 117.974 187.502 118.138 189.509 118.332Z" fill="#FFFFFE"/>
<path d="M433.199 288.96C432.373 302.442 424.776 312.464 412.91 315.219C409.661 315.973 406.083 315.74 402.703 315.435C387.54 314.067 372.394 312.512 357.242 311.018C342.579 309.572 327.921 308.086 313.254 306.679C302.783 305.674 292.268 305.046 281.836 303.74C272.671 302.593 267.281 297.086 266.424 287.786C265.694 279.856 265.745 271.834 265.789 263.854C265.954 233.502 266.253 203.151 266.51 172.8C266.558 167.192 266.549 161.582 266.74 155.979C267.069 146.312 270.656 137.914 277.59 131.205C285.422 123.627 294.775 123.649 304.018 127.752C315.513 132.855 321.915 141.903 321.912 154.783C321.907 169.222 321.709 183.662 321.596 198.101C321.59 198.787 321.595 199.473 321.595 200.955C323.045 199.951 324.107 199.41 324.927 198.619C337.094 186.878 349.22 175.095 361.374 163.34C376.2 149 390.848 134.467 405.95 120.422C415.481 111.557 427.094 108.601 439.912 111.537C444.758 112.647 448.785 115.386 451.884 119.298C457.13 125.919 460.685 133.289 461.244 141.84C461.678 148.464 460.122 154.728 456.601 160.294C454.183 164.116 451.461 167.895 448.228 171.028C421.277 197.151 394.177 223.12 367.121 249.135C366.767 249.476 366.244 249.743 366.078 250.156C365.714 251.064 365.097 252.216 365.39 252.946C365.682 253.673 366.929 254.377 367.81 254.45C372.842 254.866 377.9 254.984 382.932 255.405C391.321 256.105 399.732 256.702 408.073 257.807C419.994 259.388 430.919 270.403 432.757 282.276C433.088 284.41 433.063 286.598 433.199 288.96Z" fill="#F36617"/>
<path d="M318.905 380.729C318.899 370.286 318.894 360.052 318.884 349.817C318.884 349.773 318.825 349.729 318.601 349.41C318.279 350.244 317.998 350.911 317.761 351.593C314.175 361.904 310.457 372.173 307.106 382.56C306.235 385.259 304.62 384.843 302.707 385.033C300.668 385.236 300.482 383.9 300.035 382.579C296.49 372.105 292.93 361.637 289.369 351.169C289.13 350.466 288.844 349.779 288.227 349.131C288.227 355.031 288.227 360.932 288.227 366.832C288.227 372.781 288.227 378.73 288.227 384.828C286.388 384.828 284.676 384.828 282.8 384.828C282.8 370.375 282.8 355.913 282.8 341.196C285.372 341.196 287.955 341.103 290.52 341.275C291.035 341.31 291.702 342.281 291.926 342.946C295.646 353.952 299.306 364.978 302.981 375.998C303.178 376.591 303.394 377.177 303.753 378.193C304.13 377.339 304.398 376.835 304.581 376.302C308.405 365.185 312.248 354.075 316 342.933C316.463 341.56 317.06 341.053 318.506 341.158C320.386 341.294 322.283 341.191 324.326 341.191C324.326 355.757 324.326 370.223 324.326 384.834C322.638 384.834 320.926 384.834 318.905 384.834C318.905 383.543 318.905 382.24 318.905 380.729Z" fill="#F36617"/>
<path d="M68.302 381.989C61.4446 376.73 59.1978 369.639 59.6129 361.508C59.9218 355.457 61.6635 349.889 66.3398 345.702C72.6208 340.08 79.9754 339.071 87.7583 341.62C95.5884 344.184 99.6398 350.128 101.107 357.995C101.901 362.257 101.729 366.514 100.566 370.688C96.6934 384.584 80.777 390.207 68.302 381.989ZM71.0398 377.361C79.7919 384.092 91.4734 380.589 94.5404 370.22C96.0448 365.134 95.9778 359.978 94.1589 354.952C91.8659 348.615 86.0874 344.945 79.4067 345.455C72.6111 345.973 67.3702 350.523 66.2327 357.237C65.7576 360.041 65.6646 362.946 65.7377 365.797C65.8513 370.229 67.4626 374.112 71.0398 377.361Z" fill="#F36617"/>
<path d="M216.656 381.668C210.342 387.156 201.495 385.875 197.424 378.753C193.609 372.075 193.755 365.132 197.583 358.532C201.593 351.617 210.938 350.476 216.822 355.896C217.061 356.117 217.307 356.33 217.788 356.76C217.788 355.514 217.788 354.569 217.788 353.461C219.502 353.461 221.069 353.461 222.749 353.461C222.799 353.874 222.889 354.275 222.889 354.677C222.89 363.861 222.904 373.045 222.855 382.229C222.846 383.975 222.674 385.733 222.421 387.463C221.674 392.583 218.691 395.827 213.745 397.175C209.128 398.434 204.56 398.288 200.264 395.932C197.115 394.206 195.859 391.419 195.946 387.709C197.012 387.815 197.957 387.916 198.903 388.002C200.291 388.128 201.469 388.426 201.709 390.152C201.786 390.699 202.301 391.301 202.781 391.657C205.835 393.928 209.243 393.826 212.608 392.683C215.481 391.706 216.862 389.386 217.11 386.409C217.233 384.944 217.3 383.474 217.34 382.004C217.343 381.864 216.967 381.714 216.656 381.668ZM209.584 380.449C213.214 380.216 215.625 378.255 216.814 374.95C218.231 371.014 218.234 366.959 216.914 362.989C215.682 359.28 212.481 357.026 208.85 357.075C205.256 357.124 201.869 359.482 201.191 363.368C200.604 366.737 200.582 370.344 201.092 373.728C201.748 378.09 204.733 380.205 209.584 380.449Z" fill="#F36617"/>
<path d="M142.349 357.099C137.683 356.776 134.193 358.006 133.128 363.065C131.373 362.811 129.743 362.574 127.935 362.312C128.523 358.659 130.102 355.882 133.325 354.383C138.445 352.002 143.768 351.864 149.097 353.646C152.364 354.738 154.14 357.17 154.285 360.583C154.471 364.989 154.394 369.406 154.569 373.813C154.714 377.476 155.06 381.131 155.322 384.846C150.687 385.625 150.478 385.523 149.318 381.363C148.642 381.833 148.035 382.256 147.427 382.676C143.407 385.456 138.993 386.333 134.215 385.363C130.224 384.553 127.503 381.742 126.938 377.91C126.376 374.091 128.231 370.14 131.985 368.637C134.859 367.485 138.054 367.116 141.119 366.459C143.24 366.003 145.376 365.604 147.519 365.268C148.79 365.069 149.053 364.348 149.028 363.21C148.942 359.287 147.09 357.518 142.349 357.099ZM148.98 369.821C148.508 369.746 148.011 369.538 147.567 369.619C145.029 370.082 142.501 370.598 139.976 371.131C138.545 371.433 137.082 371.676 135.715 372.171C133.852 372.845 132.787 374.253 132.712 376.297C132.634 378.422 133.627 379.922 135.518 380.786C140.073 382.867 148.594 380.434 148.842 373.301C148.878 372.256 148.957 371.212 148.98 369.821Z" fill="#F36617"/>
<path d="M413.198 381.147C417.656 381.618 420.692 379.924 422.592 376.04C422.86 375.491 423.788 374.965 424.421 374.952C425.73 374.926 427.047 375.253 428.627 375.471C427.368 380.052 424.803 383.363 420.353 384.817C411.834 387.602 400.09 384.742 399.552 370.607C399.467 368.389 399.631 366.1 400.101 363.935C401.745 356.366 407.73 352.092 415.711 352.572C422.553 352.984 427.76 358.235 428.58 365.584C428.727 366.904 428.783 368.234 428.85 369.561C428.864 369.82 428.736 370.086 428.62 370.576C420.844 370.576 413.093 370.576 405.352 370.576C405.217 376.122 407.915 379.749 413.198 381.147ZM414.867 366.04C417.576 366.04 420.285 366.04 423.005 366.04C422.601 360.088 419.128 356.795 413.81 357.064C409.066 357.304 405.521 361.125 405.63 366.04C408.565 366.04 411.506 366.04 414.867 366.04Z" fill="#F36617"/>
<path d="M254.644 357.074C257.973 361.024 258.64 365.541 258.397 370.552C250.485 370.552 242.73 370.552 234.983 370.552C234.831 377.798 240.484 382.686 246.757 380.959C249.226 380.279 251.032 378.744 251.935 376.415C252.545 374.843 253.475 374.683 254.856 374.966C255.934 375.187 257.034 375.309 258.126 375.475C257.02 381.305 252.298 385.187 245.802 385.706C236.232 386.469 229.478 380.494 229.267 370.911C229.213 368.415 229.351 365.838 229.921 363.42C231.153 358.2 234.387 354.507 239.662 353.127C245.238 351.668 250.387 352.573 254.644 357.074ZM239.996 366.04C244.225 366.04 248.453 366.04 252.719 366.04C251.852 359.451 248.261 356.414 242.568 357.142C238.323 357.685 234.917 361.846 235.407 366.04C236.787 366.04 238.183 366.04 239.996 366.04Z" fill="#F36617"/>
<path d="M344.816 352.565C354.563 352.503 360.099 357.504 360.82 367.027C360.987 369.24 360.905 371.531 360.53 373.717C359.196 381.495 353.069 386.161 345.031 385.72C337.248 385.292 331.873 379.99 331.292 371.961C331.121 369.605 331.127 367.171 331.522 364.853C332.785 357.435 337.102 353.501 344.816 352.565ZM336.783 371.495C336.998 372.521 337.138 373.569 337.442 374.569C338.731 378.812 341.902 381.23 346.078 381.218C350.201 381.206 353.729 378.759 354.553 374.455C355.169 371.232 355.249 367.748 354.745 364.508C353.995 359.681 350.298 356.973 345.738 357.078C341.373 357.178 337.98 360.143 337.158 364.849C336.801 366.898 336.874 369.023 336.783 371.495Z" fill="#F36617"/>
<path d="M439.343 356.489C441.921 363.686 444.431 370.732 446.98 377.888C447.14 377.72 447.381 377.579 447.452 377.377C450.058 370.068 452.696 362.769 455.202 355.425C455.769 353.765 456.565 353.022 458.335 353.273C459.279 353.408 460.257 353.297 461.478 353.297C459.312 359.063 457.253 364.553 455.189 370.041C452.776 376.455 450.399 382.883 447.917 389.271C447.238 391.02 446.405 392.756 445.354 394.303C443.356 397.245 440.51 398.334 436.941 397.718C435.473 397.464 434.882 396.819 434.887 395.382C434.89 394.418 434.715 393.454 434.624 392.524C434.812 392.421 434.934 392.292 435.036 392.307C440.613 393.135 443.342 391.143 444.143 385.488C444.259 384.663 443.873 383.718 443.561 382.888C440.085 373.661 436.577 364.446 433.079 355.227C432.882 354.71 432.694 354.19 432.5 353.665C436.762 352.474 438.128 353.026 439.343 356.489Z" fill="#F36617"/>
<path d="M375.408 359.192C372.755 361.635 372.684 364.79 372.626 367.858C372.519 373.456 372.596 379.058 372.596 384.82C370.84 384.82 369.195 384.82 367.361 384.82C367.361 374.418 367.361 363.969 367.361 353.408C368.874 353.408 370.326 353.408 372.05 353.408C372.05 354.585 372.05 355.786 372.05 357.542C375.928 352.892 380.446 351.761 385.623 352.966C389.939 353.97 392.406 356.497 392.791 360.933C393.16 365.178 393.05 369.467 393.098 373.737C393.14 377.372 393.107 381.008 393.107 384.812C391.283 384.812 389.587 384.812 387.668 384.812C387.668 380.528 387.673 376.273 387.666 372.019C387.661 369.356 387.763 366.686 387.596 364.033C387.233 358.278 382.643 355.629 377.336 358.03C376.703 358.316 376.13 358.735 375.408 359.192Z" fill="#F36617"/>
<path d="M162.743 363.07C162.743 359.788 162.743 356.717 162.743 353.472C164.39 353.472 165.888 353.472 167.59 353.472C167.644 354.583 167.7 355.742 167.767 357.132C168.118 356.868 168.391 356.72 168.591 356.503C172.423 352.342 177.103 351.735 182.263 353.296C185.955 354.413 188.141 357.033 188.348 360.779C188.679 366.785 188.614 372.813 188.7 378.832C188.728 380.781 188.704 382.73 188.704 384.829C186.896 384.829 185.248 384.829 183.256 384.829C183.256 384.159 183.256 383.425 183.256 382.692C183.256 377.159 183.256 371.625 183.254 366.092C183.254 365.602 183.258 365.111 183.233 364.622C182.993 359.763 181.028 357.444 176.974 357.227C172.596 356.992 169.001 359.679 168.599 364.021C168.195 368.399 168.284 372.825 168.2 377.231C168.152 379.735 168.191 382.241 168.191 384.862C166.348 384.862 164.696 384.862 162.743 384.862C162.743 377.655 162.743 370.468 162.743 363.07Z" fill="#F36617"/>
<path d="M109.621 384.979C109.037 384.632 108.321 384.289 108.319 383.941C108.26 373.804 108.271 363.667 108.271 353.415C109.916 353.415 111.359 353.415 112.988 353.415C113.088 354.603 113.187 355.788 113.299 357.128C117.974 351.93 120.904 351.282 125.478 354.418C124.922 355.925 124.351 357.474 123.796 358.98C123.56 359.018 123.41 359.093 123.303 359.053C117.989 357.059 115.085 358.56 114.156 364.181C113.669 367.124 113.768 370.172 113.708 373.174C113.635 376.884 113.672 380.597 113.653 384.308C113.653 384.436 113.567 384.563 113.416 384.98C112.293 384.98 111.057 384.98 109.621 384.979Z" fill="#F36617"/>
<path d="M70.9265 377.261C67.4626 374.112 65.8513 370.229 65.7377 365.797C65.6646 362.946 65.7576 360.041 66.2327 357.237C67.3702 350.523 72.6111 345.973 79.4067 345.455C86.0874 344.945 91.8659 348.615 94.1589 354.952C95.9778 359.978 96.0448 365.134 94.5404 370.22C91.4734 380.589 79.7919 384.092 70.9265 377.261Z" fill="#111820"/>
<path d="M209.395 380.456C204.733 380.205 201.748 378.09 201.092 373.728C200.582 370.344 200.604 366.737 201.191 363.368C201.869 359.482 205.256 357.124 208.85 357.075C212.481 357.026 215.682 359.28 216.914 362.989C218.234 366.959 218.231 371.014 216.814 374.95C215.625 378.255 213.214 380.216 209.395 380.456Z" fill="#111820"/>
<path d="M148.998 369.995C148.957 371.212 148.878 372.256 148.842 373.301C148.594 380.434 140.073 382.867 135.518 380.786C133.627 379.922 132.634 378.422 132.712 376.297C132.787 374.253 133.852 372.845 135.715 372.171C137.082 371.676 138.545 371.433 139.976 371.131C142.501 370.598 145.029 370.082 147.567 369.619C148.011 369.538 148.508 369.746 148.998 369.995Z" fill="#111820"/>
<path d="M414.657 366.04C411.506 366.04 408.565 366.04 405.63 366.04C405.521 361.125 409.066 357.304 413.81 357.064C419.128 356.795 422.601 360.088 423.005 366.04C420.285 366.04 417.576 366.04 414.657 366.04Z" fill="#111820"/>
<path d="M239.788 366.04C238.183 366.04 236.787 366.04 235.407 366.04C234.917 361.846 238.323 357.685 242.568 357.142C248.261 356.414 251.852 359.451 252.719 366.04C248.453 366.04 244.225 366.04 239.788 366.04Z" fill="#111820"/>
<path d="M336.768 371.304C336.874 369.023 336.801 366.898 337.158 364.849C337.98 360.143 341.373 357.178 345.738 357.078C350.298 356.973 353.995 359.681 354.745 364.508C355.249 367.748 355.169 371.232 354.553 374.455C353.729 378.759 350.201 381.206 346.078 381.218C341.902 381.23 338.731 378.812 337.442 374.569C337.138 373.569 336.998 372.521 336.768 371.304Z" fill="#111820"/>
</svg>
