<svg width="512" height="512" viewBox="0 0 512 512" fill="none" xmlns="http://www.w3.org/2000/svg">
<path d="M342 512C227.833 512 113.917 512 0 512C0 341.333 0 170.667 0 0C170.667 0 341.333 0 512 0C512 170.667 512 341.333 512 512C455.417 512 398.833 512 342 512Z" fill="#1DC8FF"/>
<path d="M274.393 446.658C265.802 447.836 257.21 447.834 248.396 446.4C247.311 430.414 240.312 418.141 226.813 410.156C211.857 401.308 196.589 401.822 181.536 410.373C169.264 395.484 161.464 378.544 158.213 359.519C156.118 347.257 156.323 335.006 158.114 322.714C159.348 314.241 160.581 305.739 161.158 297.206C161.973 285.141 157.918 274.513 149.489 265.887C135.864 251.942 121.929 238.3 108.191 224.465C98.8566 215.065 93.8854 203.74 93.9286 190.416C93.9791 174.855 100.268 162.252 112.408 152.578C119.335 147.059 125.697 147.265 132.376 153.072C133.758 154.274 135.135 155.481 136.52 156.681C148.981 167.475 161.444 178.268 173.91 189.057C174.142 189.258 174.424 189.402 174.972 189.763C175.654 184.919 176.303 180.341 176.941 175.761C179.181 159.694 181.368 143.62 183.674 127.562C184.986 118.428 185.949 109.197 188.009 100.225C194.849 70.4333 219.943 47.7357 250.242 43.3595C290.987 37.4743 328.416 64.0817 335.856 104.602C338.272 117.764 339.697 131.109 341.553 144.373C343.641 159.285 345.698 174.201 347.779 189.113C349.861 204.025 351.962 218.935 354.044 233.847C356.15 248.924 358.286 263.997 360.332 279.082C362.815 297.381 365.954 315.63 367.483 334.01C369.84 362.328 361.033 387.466 343.053 409.416C342.736 409.802 342.411 410.181 341.822 410.622C323.526 399.392 300.825 402.567 286.701 417.249C278.83 425.431 274.767 435.295 274.393 446.658ZM209.168 269.922C207.931 277.716 206.266 285.471 205.539 293.312C203.731 312.829 205.579 332.063 211.673 350.748C216.553 365.711 223.728 379.322 235.771 389.96C249.982 402.513 268.636 403.489 283.84 392.287C293.973 384.821 300.753 374.74 305.948 363.505C313.672 346.802 317.098 329.102 317.624 310.802C318.207 290.534 315.354 270.82 307.448 252.026C302.222 239.603 295.208 228.394 284.246 220.147C275.869 213.846 266.531 210.772 255.945 212.457C244.257 214.316 235.582 221.078 228.297 229.846C218.654 241.454 213.048 255.064 209.168 269.922ZM232.066 144.904C228.333 145.858 224.6 146.811 220.867 147.763C245.795 174.253 278.969 172.779 302.931 147.609C300.698 147.129 298.462 146.864 296.374 146.159C288.505 143.499 280.653 140.782 272.854 137.922C265.502 135.226 258.244 135.188 250.919 137.958C244.779 140.279 238.594 142.484 232.066 144.904ZM240.495 122.335C242.034 120.857 243.934 119.61 245.046 117.862C249.527 110.819 245.278 100.565 237.618 99.5378C233.142 98.9375 229.123 101.026 226.84 105.138C224.223 109.85 224.839 115.752 228.369 119.8C231.366 123.237 235.483 124.174 240.495 122.335ZM290.341 122.701C291.905 121.504 293.769 120.551 294.974 119.064C297.99 115.338 298.345 111.005 296.666 106.602C295.214 102.792 292.495 100.201 288.343 99.5565C283.966 98.8769 280.023 100.949 277.691 104.931C275.174 109.227 275.439 115.1 278.516 119.027C281.455 122.776 285.262 124.282 290.341 122.701Z" fill="black"/>
<path d="M181.443 410.493C196.589 401.822 211.857 401.308 226.813 410.156C240.313 418.141 247.311 430.414 248.212 446.353C248.248 446.587 248.163 446.809 247.855 446.904C219.786 447 192.024 446.998 164.262 447.005C162.938 447.005 161.55 447.22 161.037 445.508C161.775 431.53 167.987 420.52 179.114 412.178C179.841 411.632 180.604 411.133 181.443 410.493Z" fill="#F27E20"/>
<path d="M274.431 446.843C274.768 435.295 278.83 425.431 286.701 417.249C300.825 402.567 323.526 399.392 341.713 410.777C346.863 414.54 351.374 418.671 354.74 423.949C358.477 429.809 360.713 436.183 361.485 443.414C361.469 443.837 361.45 443.926 361.302 444.162C361.044 445.111 360.914 445.914 360.739 447C359.713 447 358.735 447 357.757 447C331.138 447 304.519 446.996 277.9 447.018C276.94 447.018 275.98 447.279 274.897 447.43C274.774 447.442 274.532 447.4 274.532 447.4C274.511 447.276 274.489 447.152 274.431 446.843Z" fill="#F27E20"/>
<path d="M361.43 444.016C361.45 443.926 361.469 443.837 361.531 443.616C361.667 444.751 361.761 446.016 361.743 447.444C361.631 447.606 361.56 447.549 361.563 447.304C361.521 446.045 361.476 445.03 361.43 444.016Z" fill="#9FCDFF"/>
<path d="M209.238 269.728C213.048 255.064 218.654 241.454 228.297 229.846C235.582 221.078 244.257 214.316 255.945 212.457C266.531 210.772 275.869 213.846 284.246 220.147C295.208 228.394 302.222 239.603 307.448 252.026C315.354 270.82 318.207 290.534 317.624 310.802C317.098 329.102 313.672 346.802 305.948 363.505C300.753 374.74 293.973 384.821 283.84 392.287C268.636 403.489 249.982 402.513 235.771 389.96C223.728 379.322 216.553 365.711 211.673 350.748C205.579 332.063 203.731 312.829 205.539 293.312C206.266 285.471 207.931 277.716 209.238 269.728Z" fill="white"/>
<path d="M232.248 144.822C238.594 142.484 244.779 140.279 250.919 137.958C258.244 135.188 265.502 135.226 272.854 137.922C280.653 140.782 288.505 143.499 296.374 146.159C298.462 146.864 300.698 147.129 302.931 147.609C278.969 172.779 245.795 174.253 220.867 147.763C224.6 146.81 228.333 145.858 232.248 144.822Z" fill="#F27E20"/>
<path d="M240.319 122.407C235.483 124.173 231.366 123.237 228.369 119.8C224.839 115.752 224.223 109.85 226.84 105.138C229.123 101.026 233.142 98.9375 237.618 99.5378C245.278 100.565 249.527 110.819 245.046 117.862C243.934 119.61 242.034 120.857 240.319 122.407Z" fill="white"/>
<path d="M290.164 122.788C285.262 124.282 281.455 122.776 278.516 119.027C275.439 115.1 275.174 109.227 277.691 104.931C280.023 100.949 283.966 98.8769 288.343 99.5565C292.495 100.201 295.214 102.792 296.666 106.602C298.345 111.005 297.99 115.338 294.974 119.064C293.769 120.551 291.905 121.504 290.164 122.788Z" fill="white"/>
<path d="M361.302 444.162C361.476 445.03 361.521 446.045 361.528 447.275C332.819 447.496 304.149 447.502 275.249 447.463C275.98 447.279 276.94 447.018 277.9 447.018C304.519 446.996 331.138 447 357.757 447C358.735 447 359.713 447 360.739 447C360.914 445.914 361.044 445.111 361.302 444.162Z" fill="#F27E20"/>
</svg>
